<?xml version="1.0" encoding="UTF-8"?>
<!DOCTYPE svg PUBLIC "-//W3C//DTD SVG 1.1//EN" "http://www.w3.org/Graphics/SVG/1.1/DTD/svg11.dtd">
<!-- Creator: CorelDRAW X5 -->
<svg xmlns="http://www.w3.org/2000/svg" xml:space="preserve" width="43.844mm" height="60mm" style="shape-rendering:geometricPrecision; text-rendering:geometricPrecision; image-rendering:optimizeQuality; fill-rule:evenodd; clip-rule:evenodd"
viewBox="0 0 4403 6026"
 xmlns:xlink="http://www.w3.org/1999/xlink">
 <defs>
  <style type="text/css">
   <![CDATA[
    .str0 {stroke:black;stroke-width:24.4803}
    .fil2 {fill:none;fill-rule:nonzero}
    .fil0 {fill:#4278AC;fill-rule:nonzero}
    .fil1 {fill:#FCCE00;fill-rule:nonzero}
   ]]>
  </style>
 </defs>
 <g id="Layer_x0020_1">
  <metadata id="CorelCorpID_0Corel-Layer"/>
  <g id="_351146688">
   <path class="fil0" d="M29 5000l0 -2c0,-182 142,-318 325,-318 134,0 225,65 277,159l-168 99c-23,-44 -55,-74 -111,-74 -69,0 -114,60 -114,134l0 2c0,79 47,135 114,135 58,0 90,-31 115,-77l168 95c-51,91 -137,165 -289,165 -169,0 -317,-127 -317,-317z"/>
   <path class="fil0" d="M1113 5000l0 -2c0,-72 -50,-138 -128,-138 -78,0 -127,65 -127,136l0 2c0,72 50,138 128,138 78,0 127,-65 127,-136zm-461 0l0 -2c0,-177 146,-318 334,-318 188,0 332,140 332,317l0 2c0,177 -146,318 -334,318 -188,0 -332,-140 -332,-317z"/>
   <path class="fil0" d="M1812 5000l0 -2c0,-72 -50,-138 -128,-138 -78,0 -127,65 -127,136l0 2c0,72 50,138 128,138 78,0 127,-65 127,-136zm-461 0l0 -2c0,-177 146,-318 334,-318 188,0 332,140 332,317l0 2c0,177 -146,318 -334,318 -188,0 -332,-140 -332,-317z"/>
   <polygon class="fil0" points="2094,4680 2298,4680 2298,5117 2585,5117 2585,5291 2094,5291 "/>
   <polygon class="fil0" points="2630,4680 3150,4680 3150,4848 2830,4848 2830,4910 3129,4910 3129,5057 2830,5057 2830,5124 3155,5124 3155,5291 2630,5291 "/>
   <path class="fil0" d="M3231 5211l109 -130c66,51 142,72 214,72 37,0 52,-10 52,-26l0 -2c0,-17 -19,-27 -85,-40 -137,-28 -257,-67 -257,-196l0 -2c0,-116 91,-206 259,-206 118,0 205,28 276,84l-99 138c-58,-42 -127,-60 -183,-60 -31,0 -44,10 -44,25l0 2c0,17 17,27 81,39 156,29 261,74 261,197l0 2c0,128 -106,207 -270,207 -124,0 -236,-35 -313,-103z"/>
   <polygon class="fil0" points="3975,4853 3795,4853 3795,4680 4359,4680 4359,4853 4179,4853 4179,5291 3975,5291 "/>
   <path class="fil0" d="M306 5732c47,0 79,-21 79,-61l0 -2c0,-40 -29,-61 -78,-61l-50 0 0 123 50 0zm-234 -270l248 0c147,0 247,65 247,196l0 2c0,133 -102,204 -251,204l-60 0 0 150 -185 0 0 -552z"/>
   <path class="fil0" d="M871 5724c44,0 71,-20 71,-54l0 -2c0,-35 -28,-53 -70,-53l-80 0 0 108 80 0zm-264 -263l270 0c98,0 160,24 199,63 33,33 50,74 50,131l0 2c0,80 -42,136 -109,169l129 188 -211 0 -104 -158 -2 0 -38 0 0 158 -185 0 0 -552z"/>
   <path class="fil0" d="M1574 5739l0 -2c0,-65 -45,-125 -116,-125 -70,0 -114,58 -114,123l0 2c0,65 45,125 116,125 70,0 114,-58 114,-123zm-416 0l0 -2c0,-160 132,-288 302,-288 170,0 300,126 300,286l0 2c0,160 -132,288 -302,288 -170,0 -300,-126 -300,-286z"/>
   <path class="fil0" d="M1751 5922l121 -102c21,30 42,48 72,48 31,0 51,-25 51,-64l0 -343 180 0 0 340c0,73 -17,122 -58,163 -38,38 -93,60 -159,60 -106,0 -166,-43 -207,-103z"/>
   <polygon class="fil0" points="2232,5462 2703,5462 2703,5613 2413,5613 2413,5669 2683,5669 2683,5802 2413,5802 2413,5862 2707,5862 2707,6014 2232,6014 "/>
   <path class="fil0" d="M2777 5729l0 -2c0,-165 129,-288 293,-288 121,0 203,59 250,144l-152 89c-20,-39 -50,-67 -100,-67 -62,0 -103,54 -103,121l0 2c0,72 43,122 103,122 52,0 81,-28 104,-69l152 86c-47,82 -124,149 -261,149 -153,0 -286,-115 -286,-286z"/>
   <polygon class="fil0" points="3460,5618 3297,5618 3297,5462 3807,5462 3807,5618 3644,5618 3644,6014 3460,6014 "/>
   <path class="fil0" d="M3822 5911l99 -117c60,46 129,65 193,65 33,0 47,-9 47,-24l0 -2c0,-16 -17,-24 -76,-36 -124,-25 -233,-61 -233,-177l0 -2c0,-105 82,-186 234,-186 106,0 185,25 249,76l-90 125c-52,-38 -114,-54 -166,-54 -28,0 -40,9 -40,23l0 2c0,15 15,24 73,35 141,26 236,67 236,178l0 2c0,116 -95,187 -244,187 -112,0 -213,-32 -283,-93z"/>
   <polygon class="fil1" points="2261,0 2047,0 2154,383 "/>
   <polygon class="fil1" points="1372,282 1187,389 1471,668 "/>
   <polygon class="fil1" points="668,794 561,979 947,1078 "/>
   <polygon class="fil1" points="353,1710 353,1924 736,1817 "/>
   <polygon class="fil1" points="634,2719 741,2904 1019,2620 "/>
   <polygon class="fil1" points="3188,280 3003,173 2904,559 "/>
   <polygon class="fil1" points="3795,1010 3688,825 3410,1109 "/>
   <polygon class="fil1" points="4053,2006 4053,1792 3669,1899 "/>
   <polygon class="fil1" points="3754,2803 3861,2618 3476,2519 "/>
   <path class="fil1" d="M1284 1930c-29,-418 223,-799 600,-946 -391,111 -679,469 -688,889 -5,268 101,511 276,686l63 -52c-142,-152 -235,-353 -251,-577z"/>
   <path class="fil2 str0" d="M442 4877c-23,-43 -55,-74 -110,-74 -69,0 -114,60 -114,133l0 2c0,79 47,134 114,134 57,0 89,-31 114,-76m167 95c-51,90 -136,164 -287,164 -168,0 -315,-127 -315,-315l0 -2c0,-181 141,-317 323,-317 134,0 224,65 275,158"/>
   <path class="fil2 str0" d="M952 4801c-77,0 -126,64 -126,135l0 2c0,72 49,137 127,137 77,0 126,-64 126,-135l0 -2m-458 0c0,-176 145,-317 332,-317 187,0 330,139 330,315l0 2c0,176 -145,317 -332,317"/>
   <path class="fil2 str0" d="M1784 4939l0 -2c0,-72 -49,-137 -127,-137 -77,0 -126,64 -126,135l0 2c0,72 49,137 127,137m0 -454c187,0 330,139 330,315l0 2c0,176 -145,317 -332,317 -187,0 -330,-139 -330,-315l0 -2"/>
   <path class="fil2 str0" d="M2292 4634l0 434 285 0m0 173l-488 0 0 -607"/>
   <path class="fil2 str0" d="M3282 4829l0 -2c0,-115 90,-205 258,-205 117,0 204,28 274,83l-99 137c-57,-42 -126,-60 -182,-60 -30,0 -44,10 -44,25l0 2c0,16 16,27 81,39 155,29 259,74 259,196l0 2c0,127 -105,206 -268,206m-311 -102l108 -129c66,50 141,71 212,71 36,0 52,-10 52,-26l0 -2c0,-17 -19,-27 -84,-40"/>
   <polyline class="fil2 str0" points="4391,4634 4391,4806 4212,4806 4212,5241 4009,5241 4009,4806 3831,4806 "/>
   <path class="fil2 str0" d="M246 5684c47,0 79,-21 79,-61l0 -2c0,-40 -29,-61 -78,-61l-50 0 0 123 50 0zm261 -74l0 2c0,133 -102,204 -251,204l-60 0 0 150 -185 0 0 -552 248 0"/>
   <path class="fil2 str0" d="M811 5676c44,0 71,-20 71,-54l0 -2c0,-35 -28,-53 -70,-53l-80 0 0 108 80 0zm-264 -263l270 0c98,0 160,24 199,63 33,33 50,74 50,131l0 2c0,80 -42,136 -109,169l129 188 -211 0m-144 -158l0 158 -185 0"/>
   <path class="fil2 str0" d="M1400 5814c70,0 114,-58 114,-123l0 -2c0,-65 -45,-125 -116,-125 -70,0 -114,58 -114,123l0 2m116 -288c170,0 300,126 300,286l0 2c0,160 -132,288 -302,288 -170,0 -300,-126 -300,-286l0 -2"/>
   <path class="fil2 str0" d="M1955 5820c31,0 51,-25 51,-64l0 -343 180 0 0 340c0,73 -17,122 -58,163 -38,38 -93,60 -159,60 -106,0 -166,-43 -207,-103"/>
   <path class="fil2 str0" d="M2264 5414l471 0m0 151l-289 0 0 56 270 0m0 133l-270 0 0 60 293 0m0 151l-475 0"/>
   <path class="fil2 str0" d="M3189 5241l-522 0 0 -607 518 0m0 167l-318 0m0 62l297 0m0 147l-297 0m0 66l323 0"/>
   <path class="fil2 str0" d="M3180 5634c-20,-39 -50,-67 -100,-67 -62,0 -103,54 -103,121l0 2c0,72 43,122 103,122 52,0 81,-28 104,-69l152 86c-47,82 -124,149 -261,149m-286 -286l0 -2c0,-165 129,-288 293,-288"/>
   <polyline class="fil2 str0" points="3677,5570 3677,5966 3492,5966 3492,5570 3330,5570 3330,5414 3839,5414 "/>
   <path class="fil2 str0" d="M3963 5765c60,46 129,65 193,65 33,0 47,-9 47,-24l0 -2c0,-16 -17,-24 -76,-36 -124,-25 -233,-61 -233,-177l0 -2c0,-105 82,-186 234,-186 106,0 185,25 249,76l-90 125m-166 -54c-28,0 -40,9 -40,23l0 2c0,15 15,24 73,35 141,26 236,67 236,178l0 2m-244 187c-112,0 -213,-32 -283,-93"/>
   <path class="fil2 str0" d="M2645 2978l0 -268c0,-90 39,-175 106,-235 168,-151 273,-369 273,-612 0,-469 -393,-847 -867,-822 -428,22 -770,377 -779,805 -5,247 99,470 267,624 64,59 101,142 101,229l0 278c0,121 98,219 219,219l642 0"/>
   <line class="fil2 str0" x1="2714" y1="1899" x2="2308" y2= "2932" />
   <line class="fil2 str0" x1="2095" y1="2932" x2="1689" y2= "1899" />
   <path class="fil2 str0" d="M2550 3258c-9,24 -30,44 -54,50l-589 137c-32,8 -59,-14 -59,-48 0,-34 26,-67 59,-75l0 -49"/>
   <path class="fil2 str0" d="M2555 3494l0 0c0,34 -26,67 -59,75l-589 137c-32,7 -59,-14 -59,-48 0,-34 26,-67 59,-75l0 -94"/>
   <path class="fil2 str0" d="M1927 3756c37,86 122,147 222,147l105 0c133,0 241,-108 241,-241l0 -35"/>
   <line class="fil2 str0" x1="2495" y1="3463" x2="2495" y2= "3360" />
   <line class="fil2 str0" x1="2057" y1="3829" x2="2346" y2= "3829" />
   <path class="fil2 str0" d="M1518 1867c0,-378 306,-684 684,-684"/>
   <path class="fil2 str0" d="M1689 1695c51,0 51,102 103,102 51,0 51,-102 103,-102 51,0 51,102 103,102 51,0 51,-102 103,-102 51,0 51,102 103,102 51,0 51,-102 103,-102 51,0 51,102 103,102 51,0 51,-102 103,-102 51,0 51,102 103,102 51,0 51,-102 103,-102"/>
   <polyline class="fil2 str0" points="2255,231 2202,424 2095,41 2308,41 "/>
   <polyline class="fil2 str0" points="2920,617 3019,231 3204,338 3025,514 "/>
   <polyline class="fil2 str0" points="3832,1044 3446,1143 3725,859 3751,904 "/>
   <polyline class="fil2 str0" points="3852,1802 4022,1755 4022,1968 3639,1861 "/>
   <polyline class="fil2 str0" points="3639,2777 3446,2580 3832,2679 3725,2864 "/>
   <polyline class="fil2 str0" points="1283,289 1384,231 1483,617 1199,338 "/>
   <polyline class="fil2 str0" points="764,946 957,1143 571,1044 678,859 "/>
   <polyline class="fil2 str0" points="573,1915 381,1968 381,1755 764,1861 "/>
   <polyline class="fil2 str0" points="571,2679 957,2580 678,2864 627,2775 "/>
  </g>
 </g>
</svg>
